<?xml version="1.0" standalone="no"?>
<!DOCTYPE svg PUBLIC "-//W3C//DTD SVG 20010904//EN"
 "http://www.w3.org/TR/2001/REC-SVG-20010904/DTD/svg10.dtd">
<svg version="1.0" xmlns="http://www.w3.org/2000/svg"
 width="200.000000pt" height="200.000000pt" viewBox="0 0 200.000000 200.000000"
 preserveAspectRatio="xMidYMid meet">

<g transform="translate(0.000000,200.000000) scale(0.100000,-0.100000)"
fill="#000000" stroke="none">
<path d="M1339 1727 c-91 -34 -154 -93 -196 -182 -23 -49 -28 -74 -28 -135 0
-65 5 -85 33 -142 40 -81 102 -139 181 -169 74 -28 195 -23 259 10 66 34 128
96 159 160 37 75 40 200 6 273 -29 63 -97 134 -158 166 -61 31 -196 41 -256
19z m226 -52 c28 -13 61 -33 75 -44 l25 -21 -72 0 c-66 0 -73 -2 -73 -20 0
-19 7 -20 89 -20 l89 0 19 -47 c10 -27 18 -74 18 -108 l0 -60 -143 -3 c-129
-2 -143 -4 -140 -20 3 -15 20 -17 135 -20 111 -2 131 -5 127 -17 -5 -11 -24
-15 -81 -15 -66 0 -74 -2 -71 -17 2 -14 16 -19 63 -23 l59 -5 -48 -42 c-116
-102 -294 -97 -400 13 -38 39 -70 99 -81 152 l-7 32 116 0 c109 0 116 1 116
20 0 19 -7 20 -116 20 -102 0 -115 2 -110 16 3 9 6 20 6 25 0 5 62 9 141 9
128 0 140 2 137 18 -3 15 -20 18 -136 22 l-133 5 32 48 c38 58 100 102 171
122 65 18 126 11 193 -20z"/>
<path d="M1432 1263 c3 -15 13 -18 58 -18 42 0 55 3 55 15 0 11 -14 16 -58 18
-52 3 -58 1 -55 -15z"/>
<path d="M408 1665 c-98 -37 -158 -124 -158 -227 0 -140 101 -242 240 -242
139 0 240 102 240 241 -1 96 -53 178 -139 219 -47 23 -136 27 -183 9z m160
-40 c98 -42 149 -161 111 -262 -18 -49 -79 -103 -136 -119 -48 -14 -58 -14
-106 0 -57 16 -118 70 -136 119 -27 72 -4 173 51 224 54 51 145 67 216 38z"/>
<path d="M855 1173 c-250 -33 -433 -274 -395 -520 23 -151 120 -282 258 -350
66 -33 85 -38 167 -41 151 -7 261 36 359 138 95 99 131 199 124 345 -3 82 -8
101 -41 167 -67 137 -199 235 -347 258 -66 10 -71 10 -125 3z m227 -75 c56
-26 128 -77 128 -90 0 -3 -25 2 -55 13 -70 24 -147 24 -227 -1 -77 -24 -178
-26 -241 -4 l-47 16 22 18 c75 57 153 80 268 77 79 -2 105 -7 152 -29z m83
-122 c22 -8 53 -15 68 -16 24 0 32 -8 57 -62 50 -106 41 -114 -85 -78 -40 11
-100 20 -140 20 -40 0 -102 -9 -143 -20 -91 -25 -195 -25 -291 0 -41 11 -83
20 -93 20 -24 0 -23 12 7 68 47 90 58 95 136 66 63 -23 179 -21 254 5 68 24
160 23 230 -3z m-514 -201 c60 -22 190 -19 274 5 84 24 195 26 255 5 24 -8 67
-18 97 -21 l53 -7 0 -56 c0 -31 -3 -67 -7 -80 -5 -21 -9 -23 -54 -17 -26 4
-67 13 -90 21 -60 22 -190 19 -274 -5 -38 -11 -99 -20 -135 -20 -36 0 -97 9
-135 20 -38 11 -85 20 -102 20 l-33 0 0 73 c0 41 3 77 8 81 9 10 90 -1 143
-19z m4 -197 c89 -23 179 -20 256 8 76 27 164 29 254 6 44 -12 91 -23 105 -24
19 -2 24 -8 22 -23 -5 -32 -73 -125 -91 -125 -9 0 -38 7 -65 15 -66 20 -121
19 -197 -4 -121 -37 -149 -36 -293 3 -32 8 -65 24 -72 33 -18 23 -64 119 -64
132 0 12 29 8 145 -21z m483 -184 c36 -10 26 -23 -42 -55 -125 -58 -252 -57
-374 5 -66 34 -74 48 -15 30 63 -19 147 -17 213 6 54 18 172 26 218 14z"/>
</g>
</svg>
